<?xml version="1.0" encoding="UTF-8" standalone="no"?>
<!-- Created with Inkscape (http://www.inkscape.org/) -->

<svg
   xmlns:dc="http://purl.org/dc/elements/1.1/"
   xmlns:cc="http://creativecommons.org/ns#"
   xmlns:rdf="http://www.w3.org/1999/02/22-rdf-syntax-ns#"
   xmlns:svg="http://www.w3.org/2000/svg"
   xmlns="http://www.w3.org/2000/svg"
   xmlns:sodipodi="http://sodipodi.sourceforge.net/DTD/sodipodi-0.dtd"
   xmlns:inkscape="http://www.inkscape.org/namespaces/inkscape"
   width="1582.7755"
   height="844.67316"
   id="svg2"
   version="1.1"
   inkscape:version="0.48.4 r9939"
   sodipodi:docname="door-hinge.svg">
  <defs
     id="defs4" />
  <sodipodi:namedview
     id="base"
     pagecolor="#ffffff"
     bordercolor="#666666"
     borderopacity="1.0"
     inkscape:pageopacity="0.0"
     inkscape:pageshadow="2"
     inkscape:zoom="2.1606059"
     inkscape:cx="793.68387"
     inkscape:cy="389.14344"
     inkscape:document-units="px"
     inkscape:current-layer="layer1"
     showgrid="false"
     fit-margin-top="0"
     fit-margin-left="0"
     fit-margin-right="0"
     fit-margin-bottom="0"
     inkscape:window-width="1012"
     inkscape:window-height="644"
     inkscape:window-x="2176"
     inkscape:window-y="239"
     inkscape:window-maximized="0" />
  <metadata
     id="metadata7">
    <rdf:RDF>
      <cc:Work
         rdf:about="">
        <dc:format>image/svg+xml</dc:format>
        <dc:type
           rdf:resource="http://purl.org/dc/dcmitype/StillImage" />
        <dc:title></dc:title>
      </cc:Work>
    </rdf:RDF>
  </metadata>
  <g
     inkscape:label="Layer 1"
     inkscape:groupmode="layer"
     id="layer1"
     transform="translate(674.84678,1194.4544)">
    <path
       style="fill:#ffffff;fill-opacity:1;stroke:#000000;stroke-width:2;stroke-miterlimit:4;stroke-dasharray:none"
       d="m 31.66348,-762.63035 c 4.96399,0.80876 10.78026,-0.0913 16.17175,-0.13751 15.91906,-10.82216 37.73917,24.6289 14.51164,29.26812 -6.98764,0.34533 -9.80193,-7.6854 -5.33245,-10.84601 2.55892,0.30692 0.79927,1.2305 0.42593,2.27048 6.23938,4.99509 10.45158,-3.40522 7.67,-6.62029 -1.36368,-2.64332 -4.21744,-2.78539 -7.14682,-2.29731 1.72098,-3.52707 2.89974,-3.56093 4.25925,-4.55774 -1.36236,-1.23263 -1.75744,-2.8646 -1.76407,-5.79191 -0.008,-0.80083 -0.66255,-0.79762 -1.23753,-0.275 -1.67228,1.23573 -2.50896,1.37182 -5.1983,1.63997 -2.04288,0.0768 -0.2438,5.67203 -1.36833,6.97244 -0.10358,0.062 -0.23386,-0.0538 -0.51982,-0.28172 -1.76349,-1.41141 -2.49714,-3.65075 -8.32399,-1.4723 -1.27593,1.02895 -2.00746,3.03457 -2.09945,6.03674 0.61249,2.99514 5.71999,5.54449 5.59405,2.98149 -0.80677,-0.50408 -0.16144,-0.57434 0.12744,-1.26101 -0.0105,-0.60793 0.88443,-0.8283 1.23752,-0.29513 0.26048,0.39329 -0.0603,1.14304 -0.0637,1.59302 -3.32901,10.42157 3.94369,18.99268 13.98845,18.84803 l -1e-5,-7e-5 c 1.03912,-0.015 2.10633,-0.12287 3.19612,-0.33202 12.08771,-3.53114 17.74606,-13.31562 11.41949,-27.9635 3.75016,2.147 6.36744,4.86262 9.46762,7.33463 -0.22247,0.96859 0.36432,2.81411 -1.89487,1.57626 l -0.30184,-1.07655 c -3.95718,0.88825 -3.17001,3.48297 -2.6964,5.9663 3.398,6.17977 11.25028,1.76328 10.72862,-3.78637 1.9173,1.79219 2.98876,3.70657 3.62875,5.68124 1.82621,-0.42436 4.04894,-0.7496 8.04898,-0.6305 -1.36367,-2.22493 -1.41822,-4.46245 -1.50247,-7.05292 -3.0554,0.0821 -5.06554,-1.05394 -7.21726,-2.23695 7.0182,-2.22531 5.53972,-10.41741 1.11679,-11.00027 -4.37633,-1.13386 -5.45771,1.57555 -6.08368,3.45435 -0.13779,0.89041 1.93132,0.97021 2.23024,1.19393 0.62198,0.46551 -0.44801,1.3041 -0.78143,1.57961 -4.49686,-0.76347 -10.90181,-7.18314 -16.31931,-10.70849 4.34779,-1.48987 10.0594,-1.90127 19.84746,2.04913 1.65255,0.0918 9.52132,-9.24819 18.79605,-2.04913 4.44485,-2.10249 7.03495,-5.24956 16.10298,-2.52538 2.91219,2.09406 3.61896,4.07801 4.19218,6.35199 -0.88889,8.00632 -15.17701,7.50544 -12.88172,1.23418 l 1.29454,-0.27836 c 0.68518,0.90487 -0.24006,0.85499 -0.4058,1.58968 0.0132,0.9334 0.8891,1.48445 1.80431,1.51589 -0.22813,-1.22031 0.67373,-0.861 1.30461,-0.87868 1.46182,1.33514 8.07881,2.07579 7.82764,-4.28609 -0.79581,-1.00372 -1.84125,0.23157 -2.86075,0.1375 -4.4017,-5.17414 -12.44843,-4.59315 -15.10526,-0.0201 -2.72282,8.16175 11.63639,15.97779 19.49662,11.14278 8.35153,-5.23701 6.80117,-13.6804 2.85943,-17.76977 7.58121,0.62738 15.40511,-0.66259 22.53044,3.15587 6.93248,-4.43977 22.97904,-5.31759 23.75792,-3.47113 1.14029,1.56498 1.98347,3.09029 -0.64393,3.47113 -0.46627,-1.46312 -0.0777,-2.84189 -2.84061,-2.99824 0.001,0.4684 0.13641,1.0039 -0.90887,0.9491 -4.40551,0.24326 -5.84133,2.34463 -5.46642,5.94219 0.41481,1.59071 2.796,1.65868 2.78507,1.02354 -0.7263,-0.84939 -0.67756,-2.63961 1.52954,-1.70035 3.13008,1.06247 3.13471,2.61341 7.45441,2.0205 7.41892,-1.35098 5.95308,-7.54346 3.58971,-9.61187 1.84601,0.2896 4.42646,0.44629 6.48492,1.34881 1.0247,0.44871 0.55175,0.53218 1.20447,-0.18217 1.0648,-1.70016 1.69079,-2.28652 3.33834,-3.52928 0.91061,-0.66239 0.89458,-1.22472 -0.0597,-1.7499 -1.60597,-1.18143 -2.23103,-1.98612 -3.10415,-3.19536 -0.57108,-1.02797 -0.91678,-0.56493 -1.73333,-0.30349 -1.63017,1.01634 -3.62675,1.10747 -5.99057,1.5265 2.97573,-2.00286 1.70954,-8.49421 -3.49211,-9.51798 -1.61845,-0.28807 -5.67764,1.21804 -7.69196,2.63158 -0.48432,0.29482 -3.17956,-0.2019 -1.52954,-1.7592 -0.82583,-1.75767 -2.1681,-0.0942 -2.78507,0.86007 -1.32314,2.14692 -0.68099,5.8924 4.70909,6.20286 0.69187,0.0399 1.42682,0.26832 1.48114,1.28267 1.5936,0.67783 2.39651,-1.76593 2.89917,-2.8007 0.66793,-0.0655 1.55728,0.39261 1.0677,2.71 -0.56031,2.00544 -17.18341,2.66582 -24.05519,-2.87615 -7.16671,5.11439 -13.36646,3.84181 -22.53044,3.59857 3.7608,-3.50729 4.58698,-8.19796 1.77749,-13.72687 -1.20393,-2.3602 -8.10648,-8.69454 -18.17393,-4.96018 -8.66305,4.0656 -7.47845,13.99586 1.05307,15.17233 2.66703,0.022 5.27963,-1.09086 7.4319,-2.62599 2.79579,-1.39876 2.61295,1.12636 3.64216,-0.60702 0.38068,-0.6029 -0.0201,-3.00564 -2.16652,-4.54097 -3.46084,-1.49257 -3.46371,0.36384 -5.74496,0.16769 -1.06178,-1.06739 -3.27786,-10e-4 -1.82444,1.24759 -1.97185,1.6415 -2.07098,-0.68091 -1.36833,-2.19 1.08851,-0.31846 1.13594,-0.83405 1.67353,-1.35491 6.56257,-2.07873 11.0336,2.70012 10.46032,6.13735 -0.76483,4.5857 -8.70061,10.32626 -19.13981,3.24308 -0.93527,-0.84769 -1.38433,-0.57917 -2.14975,-0.13415 -9.81585,4.90746 -12.55341,-0.67714 -17.89556,-2.42477 -5.53336,1.90278 -11.46331,3.29232 -20.18618,2.5958 7.68494,-6.84874 15.23859,-12.72134 17.22817,-11.42955 0.83621,0.8245 0.1824,1.68249 -0.51312,1.81438 -1.16618,-0.0725 -1.54171,0.31459 -0.90216,1.31466 2.94861,4.59008 8.47305,1.90024 9.38377,-1.54942 0.9749,-5.38813 -3.26833,-6.07129 -5.25531,-6.43248 1.80356,-1.29299 2.96092,-2.54924 6.58675,-2.95465 0.71937,-0.14226 0.72759,-0.33389 0.74453,-1.07991 -0.8606,-3.21537 1.43481,-4.5993 0.67075,-5.86569 -0.51832,-0.62203 -2.98626,1.0483 -6.33522,-0.007 -0.46134,-0.43187 -1.14972,-0.0498 -1.16711,0.56007 -0.04,1.4048 -1.79826,3.57944 -2.8339,4.58792 -0.36905,0.33172 -0.67795,0.58043 -0.7177,-0.003 -0.14885,-3.12153 -1.1872,-4.12682 -1.63663,-4.62817 -1.87216,-2.08841 -5.85338,-2.84425 -8.6057,1.2107 -0.68449,0.95222 -1.49661,4.89115 1.81102,6.17424 0.42626,0.19907 1.03058,-0.16384 0.97258,-0.53325 -0.23199,-1.47768 1.75701,-2.03424 1.95188,0.44941 -2.44867,2.93398 -6.01729,5.66328 -9.58165,8.39442 0.66565,-6.83909 6.27669,-12.66205 -3.04183,-22.75179 -2.84661,-2.98661 -6.52304,-4.59183 -10.88625,-5.05074 -4.90959,0.88771 -9.94786,1.00496 -13.8845,7.73038 -1.73159,5.00612 -1.3973,7.36651 -0.275,11.10424 0.48269,2.33477 -2.33554,3.51701 -1.55279,-0.13415 -4.51096,-0.25422 -4.95101,3.07243 -5.58733,6.2279 1.07328,1.82139 2.10836,3.67868 4.73548,4.10163 2.93368,0.97254 4.38328,-1.50904 6.46601,-2.52202 1.10667,2.67564 0.27246,4.2771 0.25489,6.27821 2.53242,0.41827 4.43209,1.16438 6.21449,2.08267 0.84565,-2.78071 1.65807,-5.79876 2.74671,-6.87852 -1.74601,-1.07259 -4.01448,-2.14702 -3.8501,-3.2196 6.87063,-0.5943 6.3996,-3.24239 7.2575,-5.52025 -0.72454,-6.03918 -4.2074,-6.69443 -8.2066,-3.91718 0,0 0.28941,2.14595 -0.31191,2.33756 -2.36229,0.75275 -2.71859,-5.23063 -2.05249,-5.52026 1.59807,-3.64193 3.14015,-4.60074 6.31175,-5.36599 5.96895,-0.83737 11.40052,3.39516 10.57099,13.09637 -0.79245,11.50017 -15.94404,22.16305 -23.50973,15.30312 -5.47125,-0.15952 -11.70908,-1.08383 -16.40986,-0.47287 m 63.3958,12.55297 c -2.19636,-0.99132 -4.70478,-2.34488 -7.18037,-2.49853 3.2438,-0.46554 5.06194,-1.54111 7.18037,-2.85068 1.04734,1.28473 3.25725,2.14025 5.45317,2.85068 -2.13053,0.44571 -3.60104,1.49605 -5.45317,2.49853 z m 18.79605,-0.69422 c -0.82502,-0.85149 -2.08577,-1.32743 -3.40909,-1.80431 1.65258,-0.22631 2.3084,-1.23881 3.40909,-1.71041 1.03806,0.67627 2.35666,1.42931 3.52645,1.71041 -1.93507,0.46254 -2.67217,1.34177 -3.52645,1.80431 z"
       id="path3130"
       inkscape:connector-curvature="0"
       sodipodi:nodetypes="ccccccccccccccccccccccccccccccccccscccccccccccccccccccccccccccccccccccccscccccccccccccccsccccccccccccccccsccsccccccccccccccccsccccccccccccccc"
       inkscape:export-filename="C:\Users\destanko\SkyDrive\Sandbox\QuranPhone\OfflineAssets\right.png"
       inkscape:export-xdpi="42.130001"
       inkscape:export-ydpi="42.130001" />
  </g>
</svg>
